<?xml version="1.0" encoding="utf-8"?>
<!-- Generator: Adobe Illustrator 16.0.0, SVG Export Plug-In . SVG Version: 6.00 Build 0)  -->
<!DOCTYPE svg PUBLIC "-//W3C//DTD SVG 1.1//EN" "http://www.w3.org/Graphics/SVG/1.1/DTD/svg11.dtd">
<svg version="1.1" xmlns="http://www.w3.org/2000/svg" xmlns:xlink="http://www.w3.org/1999/xlink" x="0px" y="0px" width="49.49px"
	 height="75.132px" viewBox="0 0 49.49 75.132" enable-background="new 0 0 49.49 75.132" xml:space="preserve">
<g id="Line_Drawings">
</g>
<g id="icons">
	<g>
		<path fill="#18253F" d="M48.115,73.757H1.375V30.702c0-0.801,0.651-1.452,1.452-1.452h43.836c0.801,0,1.452,0.651,1.452,1.452
			v4.199h1.375v-4.199c0-1.559-1.269-2.827-2.827-2.827h-3.063V17.452C43.601,7.829,36.079,0,26.835,0h-4.178
			C13.411,0,5.89,7.829,5.89,17.452v10.423H2.827C1.269,27.875,0,29.144,0,30.702v43.62c0,0.446,0.362,0.81,0.809,0.81h47.873
			c0.446,0,0.809-0.363,0.809-0.81v-5.847h-1.375V73.757z"/>
		<path fill="#18253F" d="M26.835,7.97h-4.178c-5.031,0-9.124,4.254-9.124,9.482v10.423H7.265V17.452
			c0-8.864,6.905-16.076,15.393-16.076h4.178c8.486,0,15.391,7.212,15.391,16.076v10.423h-6.269V17.452
			C35.957,12.224,31.865,7.97,26.835,7.97z"/>
		<path fill="#FFFFFF" d="M14.908,17.452c0-4.471,3.477-8.107,7.749-8.107h4.178c4.271,0,7.747,3.637,7.747,8.107v10.423H14.908
			V17.452z"/>
		<rect x="0.826" y="30.109" fill="#18253F" width="47.855" height="45.022"/>
		<rect x="39.729" y="33.897" fill="#18253F" width="9.761" height="37.248"/>
		<rect x="1.305" y="28.321" fill="#18253F" width="46.771" height="5.088"/>
	</g>
</g>
<g id="text_description">
</g>
</svg>
